<svg xmlns="http://www.w3.org/2000/svg" xmlns:xlink="http://www.w3.org/1999/xlink" width="200" zoomAndPan="magnify" viewBox="0 0 150 149.999998" height="200" preserveAspectRatio="xMidYMid meet" version="1.0"><defs><clipPath id="id1"><path d="M 2 0 L 149.984375 0 L 149.984375 121 L 2 121 Z M 2 0 " clip-rule="nonzero"/></clipPath></defs><g clip-path="url(#id1)"><path fill="#f5dfc4" d="M 85.890625 57.234375 C 94.257812 57.234375 102.5 60.894531 109.535156 67.636719 C 111.394531 69.261719 111.523438 72.125 109.824219 73.910156 C 108.113281 75.703125 105.257812 75.703125 103.5625 73.917969 C 97.816406 68.40625 91.78125 65.910156 85.890625 65.910156 C 80.003906 65.910156 73.980469 68.402344 68.238281 73.917969 C 67.410156 74.734375 66.277344 75.183594 65.113281 75.15625 C 61.238281 75.054688 59.425781 70.285156 62.273438 67.632812 C 69.300781 60.894531 77.53125 57.234375 85.890625 57.234375 Z M 103.921875 40.117188 C 107.378906 40.117188 110.191406 42.941406 110.191406 46.414062 C 110.191406 49.882812 107.378906 52.695312 103.921875 52.695312 C 100.460938 52.695312 97.660156 49.882812 97.660156 46.414062 C 97.65625 42.941406 100.460938 40.117188 103.921875 40.117188 Z M 67.878906 40.117188 C 71.339844 40.117188 74.140625 42.941406 74.140625 46.414062 C 74.140625 49.882812 71.335938 52.695312 67.878906 52.695312 C 64.410156 52.695312 61.605469 49.882812 61.605469 46.414062 C 61.605469 42.941406 64.410156 40.117188 67.878906 40.117188 Z M 9.882812 -1.027344 C 1.441406 -0.785156 0.101562 11.96875 8.269531 14.195312 L 18.921875 17.964844 L 31.457031 83.464844 C 32.960938 91.304688 35.441406 98.398438 38.910156 104.5 C 44.011719 113.488281 52.867188 120.121094 63.792969 120.121094 L 118.039062 120.121094 C 127.832031 120.300781 127.832031 104.597656 118.039062 104.78125 L 63.792969 104.78125 C 56.070312 103.792969 52.867188 99.894531 50.035156 94.175781 L 121.644531 94.175781 C 128.210938 94.175781 131.878906 88.332031 133.5 81.570312 L 149.164062 28.167969 C 150 19.386719 145.359375 17.65625 137.234375 17.65625 L 34.363281 17.734375 L 31.597656 9.265625 C 30.851562 6.742188 28.945312 4.796875 26.550781 4.117188 Z M 9.882812 -1.027344 " fill-opacity="1" fill-rule="nonzero"/></g><path fill="#f5dfc4" d="M 67.492188 127.941406 C 61.082031 127.941406 55.882812 133.160156 55.882812 139.582031 C 55.882812 146.015625 61.082031 151.230469 67.492188 151.230469 C 73.902344 151.230469 79.089844 146.015625 79.089844 139.582031 C 79.089844 133.160156 73.902344 127.941406 67.492188 127.941406 Z M 67.492188 127.941406 " fill-opacity="1" fill-rule="nonzero"/><path fill="#f5dfc4" d="M 113.75 127.941406 C 107.347656 127.941406 102.148438 133.160156 102.148438 139.582031 C 102.148438 146.015625 107.347656 151.230469 113.75 151.230469 C 120.160156 151.230469 125.359375 146.015625 125.359375 139.582031 C 125.359375 133.160156 120.160156 127.941406 113.75 127.941406 Z M 113.75 127.941406 " fill-opacity="1" fill-rule="nonzero"/></svg>